<svg width="326" height="430" viewBox="0 0 326 430" fill="none" xmlns="http://www.w3.org/2000/svg">
  <rect x="10" y="10" width="306" height="410" rx="28" fill="#0F172A"/>
  <rect x="26" y="28" width="274" height="374" rx="20" fill="#F8FAFC"/>
  <rect x="44" y="48" width="238" height="30" rx="10" fill="#E2E8F0"/>
  <rect x="55" y="58" width="70" height="10" rx="5" fill="#1D4ED8"/>
  <rect x="44" y="94" width="238" height="120" rx="14" fill="#CBD5E1"/>
  <rect x="58" y="112" width="130" height="12" rx="6" fill="#0F172A"/>
  <rect x="58" y="134" width="206" height="8" rx="4" fill="#64748B"/>
  <rect x="58" y="150" width="156" height="8" rx="4" fill="#64748B"/>
  <rect x="58" y="171" width="88" height="24" rx="8" fill="#2563EB"/>
  <rect x="44" y="228" width="112" height="70" rx="12" fill="#E2E8F0"/>
  <rect x="170" y="228" width="112" height="70" rx="12" fill="#E2E8F0"/>
  <rect x="44" y="312" width="238" height="70" rx="12" fill="#DBEAFE"/>
  <path d="M66 360C94 337 111 352 132 334C148 321 162 327 185 340C205 351 220 343 260 320" stroke="#1D4ED8" stroke-width="6" stroke-linecap="round"/>
  <circle cx="261" cy="320" r="6" fill="#2563EB"/>
  <text x="46" y="398" font-size="12" font-family="Inter, Arial, sans-serif" fill="#334155">Tablet preview / UX + SEO blocks</text>
</svg>
